<svg
  width="220"
  height="220"
  viewBox="0 0 220 220"
  fill="none"
  xmlns="http://www.w3.org/2000/svg"
  role="img"
  aria-label="Zodiac Wheel Logo"
>
  <circle
    cx="110"
    cy="110"
    r="105"
    stroke="url(#gradient1)"
    stroke-width="3"
    fill="none"
    opacity="0.7"
    stroke-dasharray="5 3"
  />
  
  <circle
    cx="110"
    cy="110"
    r="90"
    stroke="url(#gradient2)"
    stroke-width="1.5"
    fill="none"
    opacity="0.5"
  />
  
  <circle
    cx="110"
    cy="110"
    r="75"
    stroke="url(#gradient3)"
    stroke-width="2"
    fill="none"
    opacity="0.6"
  />
  
  <g>
    <circle cx="110" cy="20" r="5" fill="url(#starGradient)" opacity="0.9" />
    <circle cx="110" cy="20" r="8" stroke="#FCD34D" stroke-width="0.5" fill="none" opacity="0.4" />
    <circle cx="155" cy="32.06" r="5" fill="url(#starGradient)" opacity="0.9" />
    <circle cx="155" cy="32.06" r="8" stroke="#FCD34D" stroke-width="0.5" fill="none" opacity="0.4" />
    <circle cx="187.94" cy="65" r="5" fill="url(#starGradient)" opacity="0.9" />
    <circle cx="187.94" cy="65" r="8" stroke="#FCD34D" stroke-width="0.5" fill="none" opacity="0.4" />
    <circle cx="200" cy="110" r="5" fill="url(#starGradient)" opacity="0.9" />
    <circle cx="200" cy="110" r="8" stroke="#FCD34D" stroke-width="0.5" fill="none" opacity="0.4" />
    <circle cx="187.94" cy="155" r="5" fill="url(#starGradient)" opacity="0.9" />
    <circle cx="187.94" cy="155" r="8" stroke="#FCD34D" stroke-width="0.5" fill="none" opacity="0.4" />
    <circle cx="155" cy="187.94" r="5" fill="url(#starGradient)" opacity="0.9" />
    <circle cx="155" cy="187.94" r="8" stroke="#FCD34D" stroke-width="0.5" fill="none" opacity="0.4" />
    <circle cx="110" cy="200" r="5" fill="url(#starGradient)" opacity="0.9" />
    <circle cx="110" cy="200" r="8" stroke="#FCD34D" stroke-width="0.5" fill="none" opacity="0.4" />
    <circle cx="65" cy="187.94" r="5" fill="url(#starGradient)" opacity="0.9" />
    <circle cx="65" cy="187.94" r="8" stroke="#FCD34D" stroke-width="0.5" fill="none" opacity="0.4" />
    <circle cx="32.06" cy="155" r="5" fill="url(#starGradient)" opacity="0.9" />
    <circle cx="32.06" cy="155" r="8" stroke="#FCD34D" stroke-width="0.5" fill="none" opacity="0.4" />
    <circle cx="20" cy="110" r="5" fill="url(#starGradient)" opacity="0.9" />
    <circle cx="20" cy="110" r="8" stroke="#FCD34D" stroke-width="0.5" fill="none" opacity="0.4" />
    <circle cx="32.06" cy="65" r="5" fill="url(#starGradient)" opacity="0.9" />
    <circle cx="32.06" cy="65" r="8" stroke="#FCD34D" stroke-width="0.5" fill="none" opacity="0.4" />
    <circle cx="65" cy="32.06" r="5" fill="url(#starGradient)" opacity="0.9" />
    <circle cx="65" cy="32.06" r="8" stroke="#FCD34D" stroke-width="0.5" fill="none" opacity="0.4" />
  </g>
  
  <text x="110" y="35" font-size="16" fill="url(#gradient4)" text-anchor="middle" dominant-baseline="middle" opacity="0.85" font-weight="bold">♈</text>
  <text x="147.5" y="45.05" font-size="16" fill="url(#gradient4)" text-anchor="middle" dominant-baseline="middle" opacity="0.85" font-weight="bold">♉</text>
  <text x="174.95" y="72.5" font-size="16" fill="url(#gradient4)" text-anchor="middle" dominant-baseline="middle" opacity="0.85" font-weight="bold">♊</text>
  <text x="185" y="110" font-size="16" fill="url(#gradient4)" text-anchor="middle" dominant-baseline="middle" opacity="0.85" font-weight="bold">♋</text>
  <text x="174.95" y="147.5" font-size="16" fill="url(#gradient4)" text-anchor="middle" dominant-baseline="middle" opacity="0.85" font-weight="bold">♌</text>
  <text x="147.5" y="174.95" font-size="16" fill="url(#gradient4)" text-anchor="middle" dominant-baseline="middle" opacity="0.85" font-weight="bold">♍</text>
  <text x="110" y="185" font-size="16" fill="url(#gradient4)" text-anchor="middle" dominant-baseline="middle" opacity="0.85" font-weight="bold">♎</text>
  <text x="72.5" y="174.95" font-size="16" fill="url(#gradient4)" text-anchor="middle" dominant-baseline="middle" opacity="0.85" font-weight="bold">♏</text>
  <text x="45.05" y="147.5" font-size="16" fill="url(#gradient4)" text-anchor="middle" dominant-baseline="middle" opacity="0.85" font-weight="bold">♐</text>
  <text x="35" y="110" font-size="16" fill="url(#gradient4)" text-anchor="middle" dominant-baseline="middle" opacity="0.85" font-weight="bold">♑</text>
  <text x="45.05" y="72.5" font-size="16" fill="url(#gradient4)" text-anchor="middle" dominant-baseline="middle" opacity="0.85" font-weight="bold">♒</text>
  <text x="72.5" y="45.05" font-size="16" fill="url(#gradient4)" text-anchor="middle" dominant-baseline="middle" opacity="0.85" font-weight="bold">♓</text>
  
  <line x1="110" y1="20" x2="155" y2="32.06" stroke="url(#gradient5)" stroke-width="0.5" opacity="0.3" />
  <line x1="155" y1="32.06" x2="187.94" y2="65" stroke="url(#gradient5)" stroke-width="0.5" opacity="0.3" />
  <line x1="187.94" y1="65" x2="200" y2="110" stroke="url(#gradient5)" stroke-width="0.5" opacity="0.3" />
  <line x1="200" y1="110" x2="187.94" y2="155" stroke="url(#gradient5)" stroke-width="0.5" opacity="0.3" />
  <line x1="187.94" y1="155" x2="155" y2="187.94" stroke="url(#gradient5)" stroke-width="0.5" opacity="0.3" />
  <line x1="155" y1="187.94" x2="110" y2="200" stroke="url(#gradient5)" stroke-width="0.5" opacity="0.3" />
  <line x1="110" y1="200" x2="65" y2="187.94" stroke="url(#gradient5)" stroke-width="0.5" opacity="0.3" />
  <line x1="65" y1="187.94" x2="32.06" y2="155" stroke="url(#gradient5)" stroke-width="0.5" opacity="0.3" />
  <line x1="32.06" y1="155" x2="20" y2="110" stroke="url(#gradient5)" stroke-width="0.5" opacity="0.3" />
  <line x1="20" y1="110" x2="32.06" y2="65" stroke="url(#gradient5)" stroke-width="0.5" opacity="0.3" />
  <line x1="32.06" y1="65" x2="65" y2="32.06" stroke="url(#gradient5)" stroke-width="0.5" opacity="0.3" />
  <line x1="65" y1="32.06" x2="110" y2="20" stroke="url(#gradient5)" stroke-width="0.5" opacity="0.3" />
  
  <circle
    cx="110"
    cy="110"
    r="35"
    fill="url(#centerGradient)"
    opacity="0.9"
  />
  
  <line x1="110" y1="82" x2="110" y2="72" stroke="#FCD34D" stroke-width="2" opacity="0.7" stroke-linecap="round" />
  <line x1="129.8" y1="92.2" x2="137.8" y2="87.8" stroke="#FCD34D" stroke-width="2" opacity="0.7" stroke-linecap="round" />
  <line x1="138" y1="110" x2="148" y2="110" stroke="#FCD34D" stroke-width="2" opacity="0.7" stroke-linecap="round" />
  <line x1="129.8" y1="127.8" x2="137.8" y2="132.2" stroke="#FCD34D" stroke-width="2" opacity="0.7" stroke-linecap="round" />
  <line x1="110" y1="138" x2="110" y2="148" stroke="#FCD34D" stroke-width="2" opacity="0.7" stroke-linecap="round" />
  <line x1="90.2" y1="127.8" x2="82.2" y2="132.2" stroke="#FCD34D" stroke-width="2" opacity="0.7" stroke-linecap="round" />
  <line x1="82" y1="110" x2="72" y2="110" stroke="#FCD34D" stroke-width="2" opacity="0.7" stroke-linecap="round" />
  <line x1="90.2" y1="92.2" x2="82.2" y2="87.8" stroke="#FCD34D" stroke-width="2" opacity="0.7" stroke-linecap="round" />
  
  <path
    d="M 110 85 A 20 20 0 1 1 110 135 A 15 15 0 1 0 110 85 Z"
    fill="url(#moonGradient)"
    opacity="0.8"
  />
  
  <circle cx="40" cy="50" r="2" fill="#FCD34D" opacity="0.6" />
  <circle cx="170" cy="60" r="1.5" fill="#FCD34D" opacity="0.6" />
  <circle cx="30" cy="120" r="1.5" fill="#FCD34D" opacity="0.6" />
  <circle cx="180" cy="130" r="2" fill="#FCD34D" opacity="0.6" />
  <circle cx="50" cy="170" r="1.5" fill="#FCD34D" opacity="0.6" />
  <circle cx="160" cy="180" r="2" fill="#FCD34D" opacity="0.6" />
  
  <defs>
    <linearGradient id="gradient1" x1="0%" y1="0%" x2="100%" y2="100%">
      <stop offset="0%" stop-color="#FCD34D" />
      <stop offset="25%" stop-color="#F59E0B" />
      <stop offset="50%" stop-color="#F472B6" />
      <stop offset="75%" stop-color="#C084FC" />
      <stop offset="100%" stop-color="#A78BFA" />
    </linearGradient>
    
    <linearGradient id="gradient2" x1="100%" y1="0%" x2="0%" y2="100%">
      <stop offset="0%" stop-color="#A78BFA" />
      <stop offset="50%" stop-color="#F472B6" />
      <stop offset="100%" stop-color="#FCD34D" />
    </linearGradient>
    
    <linearGradient id="gradient3" x1="0%" y1="100%" x2="100%" y2="0%">
      <stop offset="0%" stop-color="#FCD34D" />
      <stop offset="50%" stop-color="#EC4899" />
      <stop offset="100%" stop-color="#A78BFA" />
    </linearGradient>
    
    <linearGradient id="gradient4" x1="0%" y1="0%" x2="100%" y2="100%">
      <stop offset="0%" stop-color="#FCD34D" stop-opacity="1" />
      <stop offset="50%" stop-color="#FBBF24" stop-opacity="1" />
      <stop offset="100%" stop-color="#F59E0B" stop-opacity="1" />
    </linearGradient>
    
    <linearGradient id="gradient5" x1="0%" y1="0%" x2="100%" y2="0%">
      <stop offset="0%" stop-color="#A78BFA" stop-opacity="0.5" />
      <stop offset="50%" stop-color="#F472B6" stop-opacity="0.5" />
      <stop offset="100%" stop-color="#FCD34D" stop-opacity="0.5" />
    </linearGradient>
    
    <radialGradient id="starGradient">
      <stop offset="0%" stop-color="#FCD34D" />
      <stop offset="70%" stop-color="#F59E0B" />
      <stop offset="100%" stop-color="#FBBF24" stop-opacity="0.8" />
    </radialGradient>
    
    <radialGradient id="centerGradient">
      <stop offset="0%" stop-color="#FEF3C7" />
      <stop offset="40%" stop-color="#FCD34D" />
      <stop offset="100%" stop-color="#F59E0B" />
    </radialGradient>
    
    <linearGradient id="moonGradient" x1="0%" y1="0%" x2="100%" y2="100%">
      <stop offset="0%" stop-color="#E0E7FF" />
      <stop offset="50%" stop-color="#C7D2FE" />
      <stop offset="100%" stop-color="#A5B4FC" />
    </linearGradient>
  </defs>
</svg>
